<?xml version="1.0" encoding="utf-8"?>
<!-- Generator: Adobe Illustrator 16.0.0, SVG Export Plug-In . SVG Version: 6.00 Build 0)  -->
<!DOCTYPE svg PUBLIC "-//W3C//DTD SVG 1.1//EN" "http://www.w3.org/Graphics/SVG/1.1/DTD/svg11.dtd">
<svg version="1.1" id="Calque_2" xmlns="http://www.w3.org/2000/svg" xmlns:xlink="http://www.w3.org/1999/xlink" x="0px" y="0px"
	 width="800px" height="600px" viewBox="0 0 800 600" enable-background="new 0 0 800 600" xml:space="preserve">
<polygon fill-rule="evenodd" clip-rule="evenodd" points="401.833,28.751 165.917,162.211 164.822,433.691 397.146,570.347 
	633,436.67 633,166 "/>
<path fill-rule="evenodd" clip-rule="evenodd" fill="#FFFFFF" d="M218.333,270c0,0,46.417-41.25,51.417-70.25s-23-7.25-25.75-3
	s-16.5,13.5-32.5,74c-6.75,6.5-13.076,14.498-46.038,27.499c-0.016,3.752-0.026,6.086-0.026,6.086s37.23-17.333,44.564-28.667
	c-2.667,13-17,83.666,15.667,90.666C238,368.668,261,350.335,267,326.668s-14.333-21.799-23.667-5.566s-9,28.899-9,28.899
	l8.417-8.688c0,0,1.688-23,10.5-25.125c5.625-0.688,16.125,26.063-15.125,42.438c-7.292,3.126-30.125-0.96-22.958-74.292
	C216.333,273.333,218.333,270,218.333,270z M247.667,198.502c11.833-15,14.333,0.333,13.833,7.833
	c-7.167,29-42.167,58.5-42.167,58.5C223.167,234.921,242.333,205.669,247.667,198.502z"/>
<path fill-rule="evenodd" clip-rule="evenodd" fill="#FFFFFF" d="M433.75,307.25c-1-0.625,0.417-18.25,3.917-22.917
	s1.922-7.156,1.211-7.495s-7.044,4.494-8.211,7.828s-7.834,26.667-17.334,18c-2.666-2-7.499-3.833-11.166,0.5
	c1-6.167,4.884-35.5-2.975-31.333C392,277.167,386.5,281,382.25,310c-3,14.25-11,60.5-11,60.5s2.25-56.829,10.25-105.665
	c0.25-4.585-2-4.335-7.5,2.415c-2.25,4-2.75,12.25-5,19s-14,39.584-17.833,41.084c-0.833-1.5,0-27.667,2.667-31.833
	s7.167-17.666,6.833-19.333s-9.833,4.167-13.5,18.833s-9.5,24.667-14,26.833c-2-1.167-4-14.667,7.333-36.333
	c1.167-3.333-0.243-6.609-8.667,5.333c0,0-11.834,12.165-14.167,13.166c0,0,4.333-39.333-16-23.333S270,345.999,277.333,355.333
	s28.042-5.833,39.792-46.708c0,0,11.55-10.588,12.216-11.809c0.028-0.068,0.045-0.104,0.034-0.066
	c-0.005,0.016-0.021,0.043-0.034,0.066c-0.619,1.495-10.057,27.458-3.841,33.434c3.5,3.25,15.25-11.5,17.25-14.5
	c-0.25,5.5-3.25,30,9.5,14.75s15.5-27,16.25-28.75s-5.75,50-5.5,66s-1.25,26.25,2.75,22s7.25-6.75,8-8.75s7.5-21.75,11.75-56.75
	s9-43.5,9.75-43S398,310.75,389,320c0,2.25,1.5,4,1.5,4s9.5-7.5,9.5-14.75c0.25-2.438,2.688-4.625,7.938,2.375
	s16.563-9.25,17.5-9.75s1.063,0.125,0.438,9.5s6.938,2.875,11.5-2.75S434.75,307.875,433.75,307.25z M289.667,350.334
	c-6.526,0.209-14-16.334,6-58.834c0,0-8,34.833,13.333,21.5C308.333,319.667,298,350.834,289.667,350.334z M310.5,308.5
	c-1.333,0.5-11.103-0.817-8.917-15.083s4.916-7.25,4.333-3.5s-2.917,7.167-3.167,7.417s2.333,0.417,6.25-4.917
	c0,0,2.153-1.412,2.25,1.917S311.833,308,310.5,308.5z"/>
<path fill-rule="evenodd" clip-rule="evenodd" fill="#FFFFFF" d="M434.063,246.5c0.16-0.158,7.438-7.063,7.438-7.063
	s1.313-3.188-1.438-3.438c0.375-2.313,0.625-5.188-3.375-4.125c-3.25,2.688-7.125,6.875-7.125,6.875s-1.625,1.25,0.875,3.938
	S433.431,247.125,434.063,246.5z"/>
<path fill-rule="evenodd" clip-rule="evenodd" fill="#FFFFFF" d="M589.5,298.625c-9.75,6-25.375,9-30.833,10.375
	c-19.5,11.834-12-4.667-8.334-14c11.833-28.167-2-25.667-3-25.5s-10.166,1.167-10.833,13c-0.5,21.334-5.667,42-13.5,41.667
	s-4.333-14.334-1.667-22c15.666-22.166,6.667-25.833,3.334-25.833c-15,3.667-25,24.667-31,39c4.667-45.667-32.667-37-35.667-38
	c24.333-38,40.25-92.083,41.75-109.333s-6.75-6.333-12.75,4.333c-43.333,94-50.125,183.542-50.125,183.542
	c-0.75,11.813,2.521,5.784,11.438-2.188c6.563-5.875-0.813-3.438-3.313-1.438c-0.5-3,8-57,10-65.75
	c32-6.25,32.125,30.125,31.5,31.75s-5.5,2.25-12.75,6.625s-23.375,22.625-15.375,25.875s17.874-5.75,24.499-13.125
	s10.499-14.375,10.499-14.375c-1.375,19,15.89-0.125,18.123-1.5c-0.75,3.625-0.754,14.125,6.746,10.5
	c20.75-6,25.867-41.5,25.617-48.875s1.484-4.5,2.734-3.125s0.344,9.5-4.031,22c-7.75,18.875-3.563,19.375,2.188,18.25
	s31.875-9.75,41.75-14.875C613.125,288.5,633,306,633,306s0-2.75,0-11.875C617,283,599.25,292.625,589.5,298.625z M492,170
	c0.333,5.167-11.334,61.833-31.334,92.667C460.666,262.667,479.334,196.167,492,170z M467.25,344.084
	c-10.583-2.667,8.834-20.667,18.917-19.5C486.167,324.584,477.563,344.688,467.25,344.084z M500.915,320.416
	c1.502-2,11.086-7.75,12.002-8.75C512.917,311.666,504.33,332.666,500.915,320.416z M513.417,307.667
	c-3.084,2.333-12.666,8.916-12.5,6.416c0.022-0.343,6.25-22.25,12.333-26.667c6.176-4.484,10.5-4.667,7.5,7.833
	C518.333,301.083,514.084,302.667,513.417,307.667z"/>
</svg>
